<?xml version="1.0" encoding="UTF-8"?>
<svg version="1.1" xmlns="http://www.w3.org/2000/svg" width="512" height="172">
<path d="M0 0 C3.31699646 0.06326028 6.63382971 0.10444491 9.95117188 0.14501953 C12.08661356 0.1840382 14.22203197 0.2243569 16.35742188 0.26611328 C17.33572968 0.27564026 18.31403748 0.28516724 19.32199097 0.29498291 C27.0546736 0.48600826 35.25775849 1.62070854 41.15745544 7.13845825 C47.07783016 14.94292151 47.00632289 24.7987092 46.92382812 34.13330078 C46.92398359 35.4860746 46.92548044 36.83884885 46.92823792 38.19161987 C46.92961184 41.00718216 46.91723242 43.82222879 46.89428711 46.63769531 C46.86584973 50.22284311 46.86866794 53.8071398 46.88137722 57.39235115 C46.88837317 60.17901723 46.88050177 62.96549093 46.86812019 65.75213242 C46.86149524 67.70894023 46.86571927 69.66577527 46.870224 71.62258911 C46.79693397 78.5857526 46.17180727 84.39023069 43.42773438 90.81298828 C43.07710938 91.72048828 42.72648437 92.62798828 42.36523438 93.56298828 C37.60167144 99.09486782 30.49346397 101.18383536 23.42773438 101.81298828 C19.30656313 101.96538798 15.18814175 101.9769159 11.06445312 101.98095703 C9.28371147 101.98594963 9.28371147 101.98594963 7.46699524 101.99104309 C4.96148057 101.99609327 2.45595921 101.99845201 -0.04956055 101.99829102 C-3.86127939 102.00047483 -7.67270738 102.01864393 -11.484375 102.03759766 C-13.92643131 102.04053259 -16.36848898 102.04251672 -18.81054688 102.04345703 C-20.50477531 102.05423531 -20.50477531 102.05423531 -22.23323059 102.06523132 C-42.09660633 102.00852999 -42.09660633 102.00852999 -48.57226562 95.81298828 C-52.71818021 89.3518227 -54.67830983 83.47800261 -54.74926758 75.84204102 C-54.76210281 74.63656113 -54.77493805 73.43108124 -54.78816223 72.18907166 C-54.79554916 70.88805008 -54.8029361 69.5870285 -54.81054688 68.24658203 C-54.8146224 67.57996111 -54.81869793 66.91334019 -54.82289696 66.22651863 C-54.84373003 62.69308919 -54.85803959 59.15969819 -54.86743164 55.6262207 C-54.8784474 52.00405785 -54.91279784 48.38251757 -54.95260334 44.76057339 C-54.97895359 41.95242802 -54.98713993 39.14442636 -54.99071312 36.33616829 C-54.99786073 34.36053278 -55.02422476 32.38499625 -55.05110168 30.40953064 C-55.03171043 22.27311382 -54.47406191 13.81392706 -49.26631165 7.1391449 C-37.2644697 -3.88288756 -14.93211857 -0.30051223 0 0 Z M14.99023438 20.43798828 C12.92981666 23.56982321 12.75097988 25.12843601 13.42773438 28.81298828 C15.34440104 31.89632161 15.34440104 31.89632161 18.42773438 33.81298828 C22.02681857 33.81298828 24.32831701 33.58258044 27.30273438 31.50048828 C28.67810288 29.43743552 29.28488397 28.3128703 29.42773438 25.81298828 C27.83258653 21.52687581 27.83258653 21.52687581 24.42773438 18.81298828 C20.55348872 18.45426183 18.27839531 18.24588099 14.99023438 20.43798828 Z M-18.62304688 40.05517578 C-21.53458989 42.68081577 -22.93357981 45.26250234 -24.57226562 48.81298828 C-24.90226562 49.47298828 -25.23226562 50.13298828 -25.57226562 50.81298828 C-26.54505903 58.5953355 -25.72382627 64.223633 -21.29492188 70.74658203 C-18.21162551 74.44513935 -15.16687562 76.28145162 -10.57226562 77.81298828 C-1.89488481 78.41542326 4.26005734 78.38528288 11.05273438 72.56298828 C16.50181595 66.25352541 18.13641138 62.09893464 17.80273438 53.74658203 C16.99306013 47.41256792 14.59722301 43.4665459 9.67773438 39.43798828 C0.30691431 33.08107337 -9.49568299 33.4605359 -18.62304688 40.05517578 Z " fill="#027AFC" transform="translate(77.572265625,24.18701171875)"/>
<path d="M0 0 C3.96 0 7.92 0 12 0 C15.63921714 6.93344676 18.53974421 14.08717343 21.421875 21.36328125 C21.93166187 22.64509917 22.44161349 23.92685159 22.95172119 25.20854187 C24.0130335 27.87774208 25.07163324 30.54799832 26.12841797 33.21899414 C27.48318532 36.64218357 28.84590658 40.06214435 30.21076584 43.48132038 C31.26266079 46.11955304 32.30980535 48.75965134 33.35556793 51.40032005 C33.8563421 52.66284718 34.35872711 53.92473662 34.86275482 55.1859684 C35.56412817 56.94274649 36.25831109 58.70239016 36.95214844 60.4621582 C37.34867615 61.4617305 37.74520386 62.4613028 38.15374756 63.49116516 C39 66 39 66 39 69 C34.05 69 29.1 69 24 69 C20 58.25 20 58.25 20 56 C10.76 56 1.52 56 -8 56 C-8.33 57.65 -8.66 59.3 -9 61 C-9.91157699 63.70639177 -10.96214971 66.33768839 -12 69 C-16.95 69 -21.9 69 -27 69 C-24.51223392 61.18288613 -21.51891507 53.60332831 -18.45703125 45.99609375 C-17.92300562 44.6638332 -17.38921133 43.3314799 -16.8556366 41.9990387 C-15.46222876 38.52119974 -14.06571694 35.04461569 -12.66851807 31.56829834 C-11.23869538 28.00918676 -9.81186279 24.44887697 -8.38476562 20.88867188 C-5.59274111 13.92461559 -2.79715483 6.96199766 0 0 Z M6 21 C2.38802692 28.52000953 -0.47410712 36.048115 -3 44 C2.94 44 8.88 44 15 44 C12.77150394 36.14161917 10.01037052 28.59136913 7 21 C6.67 21 6.34 21 6 21 Z " fill="#010101" transform="translate(411,41)"/>
<path d="M0 0 C38.51616379 0 38.51616379 0 46.48828125 7.2734375 C50.6001162 11.96964176 51.54576138 17.67757229 51.2734375 23.7734375 C50.38747666 30.98769006 47.65683556 34.89717786 42.1328125 39.5546875 C38.1666949 42.24234961 34.68989565 43.25386375 29.91796875 43.1953125 C28.65762817 43.18781982 28.65762817 43.18781982 27.37182617 43.18017578 C26.32099854 43.16196777 25.2701709 43.14375977 24.1875 43.125 C20.825625 43.08375 17.46375 43.0425 14 43 C14 51.58 14 60.16 14 69 C9.38 69 4.76 69 0 69 C0 46.23 0 23.46 0 0 Z M14 11 C14 17.93 14 24.86 14 32 C16.371875 32.061875 18.74375 32.12375 21.1875 32.1875 C21.92508545 32.21481201 22.6626709 32.24212402 23.42260742 32.27026367 C27.8450381 32.32580534 30.4910976 31.68479321 34 29 C36.5290797 25.96510436 37 24.48112565 37 20.5 C35.81557305 16.35450568 34.32225448 14.6894441 31 12 C25.57364835 10.19121612 19.66885438 10.94799216 14 11 Z " fill="#010101" transform="translate(241,41)"/>
<path d="M0 0 C4.75814358 2.66873921 8.00029965 6.12589896 9.75 11.375 C9.83507079 14.1065956 9.86591565 16.81191443 9.84765625 19.54296875 C9.8462413 20.33778152 9.84482635 21.1325943 9.84336853 21.95149231 C9.83777378 24.48853325 9.82522228 27.02548575 9.8125 29.5625 C9.80748432 31.28320185 9.80292153 33.00390508 9.79882812 34.72460938 C9.78780607 38.9414403 9.77054506 43.15820516 9.75 47.375 C5.46 47.375 1.17 47.375 -3.25 47.375 C-3.32347656 44.19617188 -3.32347656 44.19617188 -3.3984375 40.953125 C-3.45249024 38.89446114 -3.5097807 36.835911 -3.56738281 34.77734375 C-3.60560024 33.34969602 -3.64046572 31.92195437 -3.671875 30.49414062 C-3.71768401 28.43846132 -3.7756498 26.38342446 -3.8359375 24.328125 C-3.88306885 22.47429199 -3.88306885 22.47429199 -3.93115234 20.58300781 C-4.22881277 17.58817018 -4.58196569 15.84555815 -6.25 13.375 C-9.37942465 11.81028767 -12.86082223 11.67798042 -16.25 12.375 C-19.28750928 14.66749328 -20.16683406 15.87228498 -20.79589844 19.67480469 C-20.8168457 20.95258789 -20.83779297 22.23037109 -20.859375 23.546875 C-20.87591125 24.2292926 -20.89244751 24.91171021 -20.90948486 25.61480713 C-20.95789839 27.78496354 -20.97931865 29.95441972 -21 32.125 C-21.02816562 33.60029552 -21.05809389 35.07555851 -21.08984375 36.55078125 C-21.1669635 40.15917396 -21.20753375 43.76536895 -21.25 47.375 C-25.87 47.375 -30.49 47.375 -35.25 47.375 C-35.25 31.535 -35.25 15.695 -35.25 -0.625 C-30.63 -0.625 -26.01 -0.625 -21.25 -0.625 C-20.92 0.035 -20.59 0.695 -20.25 1.375 C-19.280625 0.88 -18.31125 0.385 -17.3125 -0.125 C-11.4379681 -2.60035719 -5.83205858 -2.62497552 0 0 Z " fill="#010101" transform="translate(220.25,62.625)"/>
<path d="M0 0 C2.5625 1.75 2.5625 1.75 4 3 C2.61811547 6.21043882 1.07578097 8.04936365 -1.625 10.25 C-2.25664062 10.77078125 -2.88828125 11.2915625 -3.5390625 11.828125 C-4.02117187 12.21484375 -4.50328125 12.6015625 -5 13 C-5.9590625 12.2575 -5.9590625 12.2575 -6.9375 11.5 C-11.06109354 9.48028071 -14.4856604 9.28720954 -19 10 C-22.75907225 11.91952626 -24.22937924 13.89411861 -25.5 17.8125 C-26.37767415 22.2505504 -25.29806494 25.0932896 -23 29 C-20.41999955 31.96222274 -19.05145998 31.99509905 -15.0625 32.375 C-11.2910743 32.25604965 -9.17749982 31.03006933 -6 29 C-2.63334996 29.38010565 -1.02699782 30.63025233 1.25 33.0625 C2.03117187 33.88427734 2.03117187 33.88427734 2.828125 34.72265625 C3.21484375 35.14417969 3.6015625 35.56570312 4 36 C2.614012 39.35066172 1.2243823 40.83371851 -1.875 42.6875 C-2.55304688 43.10386719 -3.23109375 43.52023438 -3.9296875 43.94921875 C-10.55212031 47.31041578 -17.73516773 46.65513514 -24.625 44.4375 C-31.31292624 41.77731646 -35.13601749 37.94629494 -38.9375 31.9375 C-41.40087252 25.13243342 -41.38275849 16.00236165 -38.3125 9.4375 C-34.5421998 3.25473498 -29.08847534 -1.4124798 -22.109375 -3.58984375 C-13.9884712 -5.16890838 -7.12948536 -4.12681829 0 0 Z " fill="#010101" transform="translate(361,65)"/>
<path d="M0 0 C4.62 0 9.24 0 14 0 C14 22.77 14 45.54 14 69 C9.38 69 4.76 69 0 69 C0 46.23 0 23.46 0 0 Z " fill="#010101" transform="translate(458,41)"/>
<path d="M0 0 C4.62 0 9.24 0 14 0 C14 22.77 14 45.54 14 69 C9.38 69 4.76 69 0 69 C0 46.23 0 23.46 0 0 Z " fill="#000000" transform="translate(159,41)"/>
<path d="M0 0 C4.29 0 8.58 0 13 0 C13 15.84 13 31.68 13 48 C8.71 48 4.42 48 0 48 C0 32.16 0 16.32 0 0 Z " fill="#000000" transform="translate(300,62)"/>
<path d="M0 0 C3.84574916 3.21969697 3.84574916 3.21969697 4.6875 6.25 C5.01906904 10.42776989 5.09930849 13.15991872 3.625 17.0625 C0.93023951 20.10497152 -1.43309622 21.08617886 -5.3125 22.25 C-9.87627786 22.25 -11.68680059 21.78048428 -15.1875 18.8125 C-18.16525787 15.22167433 -18.65757394 13.05938129 -18.59765625 8.3515625 C-18.13099096 4.91230327 -16.53124413 2.83853482 -14.3125 0.25 C-9.85056409 -3.1349169 -4.73332379 -2.50062389 0 0 Z " fill="#077AF6" transform="translate(80.3125,70.75)"/>
<path d="M0 0 C2.4375 1.5625 2.4375 1.5625 4 4 C4.56288002 7.94016013 4.60396028 10.05782196 2.4375 13.4375 C-0.94217804 15.60396028 -3.05983987 15.56288002 -7 15 C-9.4375 13.4375 -9.4375 13.4375 -11 11 C-11.56288002 7.05983987 -11.60396028 4.94217804 -9.4375 1.5625 C-6.05782196 -0.60396028 -3.94016013 -0.56288002 0 0 Z " fill="#020202" transform="translate(310,40)"/>
<path d="M0 0 C1.14998845 3.63404655 1.08403448 6.9943447 1.02172852 10.78808594 C1.01212097 11.46166641 1.00251343 12.13524689 0.99261475 12.82923889 C0.95972778 15.0477274 0.91935667 17.26601259 0.87890625 19.484375 C0.85459504 21.0256479 0.83075199 22.56692824 0.80735779 24.10821533 C0.74461638 28.15904241 0.67552174 32.2097371 0.60510254 36.26043701 C0.53432914 40.39621975 0.46956612 44.53209613 0.40429688 48.66796875 C0.27541275 56.77874954 0.13981653 64.88940033 0 73 C-2.07093599 69.58393205 -2.25290561 66.92720655 -2.25878906 62.96557617 C-2.26509338 61.74718552 -2.27139771 60.52879486 -2.27789307 59.27348328 C-2.2738446 57.95991348 -2.26979614 56.64634369 -2.265625 55.29296875 C-2.26697331 53.92539908 -2.26891523 52.55782988 -2.27142334 51.19026184 C-2.27436978 48.32463007 -2.27009447 45.4591231 -2.26074219 42.59350586 C-2.24938022 38.93525526 -2.25588928 35.27729922 -2.26788712 31.61905956 C-2.27514644 28.79390788 -2.27279863 25.9688249 -2.26763153 23.14367104 C-2.2656625 21.14356418 -2.27170007 19.14345456 -2.27789307 17.14335632 C-2.24668023 11.06425679 -2.14844774 5.72048214 0 0 Z " fill="#277CDD" transform="translate(25,37)"/>
<path d="M0 0 C0.33 0 0.66 0 1 0 C1.04645969 7.96288608 1.08193819 15.92571497 1.10362434 23.88870335 C1.11403566 27.58673981 1.12814603 31.28468314 1.15087891 34.98266602 C1.17270239 38.55531154 1.18458855 42.1278678 1.18975449 45.70057487 C1.19343325 47.05964499 1.20061678 48.41871055 1.21146011 49.77774239 C1.31188082 62.89231485 1.31188082 62.89231485 -1 69 C-1.33 69 -1.66 69 -2 69 C-2 66.03 -2 63.06 -2 60 C-1.34 60 -0.68 60 0 60 C0 40.2 0 20.4 0 0 Z " fill="#2B81E1" transform="translate(123,44)"/>
<path d="M0 0 C0.66 1.32 1.32 2.64 2 4 C-1.66537215 8.3607002 -4.97333737 11.51902289 -10.62109375 12.859375 C-18.1401821 13.49543081 -24.08802846 13.03156647 -31 10 C-31 9.01 -31 8.02 -31 7 C-30.278125 7.495 -29.55625 7.99 -28.8125 8.5 C-23.625493 11.09969325 -17.6261466 10.52386314 -12 10 C-6.85897215 8.2557227 -2.47746476 4.95492952 0 0 Z " fill="#227DE0" transform="translate(92,91)"/>
<path d="M0 0 C2.97 0.99 5.94 1.98 9 3 C9 3.33 9 3.66 9 4 C6.69 4.33 4.38 4.66 2 5 C1.34 7.97 0.68 10.94 0 14 C-2.31 12.02 -4.62 10.04 -7 8 C-5.68 7.34 -4.36 6.68 -3 6 C-1.23272142 2.9665533 -1.23272142 2.9665533 0 0 Z " fill="#157BE7" transform="translate(92,55)"/>
<path d="M0 0 C0 0.33 0 0.66 0 1 C-8.415 1.495 -8.415 1.495 -17 2 C-17 2.66 -17 3.32 -17 4 C-20.44450737 6.29633824 -22.93812283 6.54016485 -27 7 C-19.97572309 -1.48766794 -9.96551578 -0.35035016 0 0 Z " fill="#2681D9" transform="translate(56,25)"/>
<path d="M0 0 C0.99 0.33 1.98 0.66 3 1 C3 2.32 3 3.64 3 5 C3.66 5 4.32 5 5 5 C5.10794277 7.26979665 5.18556176 9.54105196 5.25 11.8125 C5.29640625 13.07707031 5.3428125 14.34164062 5.390625 15.64453125 C5 19 5 19 2.984375 20.94921875 C2.32953125 21.29597656 1.6746875 21.64273438 1 22 C1.16113281 21.46117188 1.32226562 20.92234375 1.48828125 20.3671875 C2.92150497 13.73716023 2.76719663 6.22619241 0 0 Z " fill="#277DDE" transform="translate(92,69)"/>
<path d="M0 0 C0.90105469 0.00902344 1.80210938 0.01804688 2.73046875 0.02734375 C3.41753906 0.03894531 4.10460937 0.05054688 4.8125 0.0625 C4.8125 0.3925 4.8125 0.7225 4.8125 1.0625 C3.719375 1.165625 2.62625 1.26875 1.5 1.375 C-2.00138619 1.82939628 -2.00138619 1.82939628 -4.125 3.125 C-5.88709328 6.33822893 -5.36532537 9.4467174 -5.1875 13.0625 C-6.1775 12.4025 -7.1675 11.7425 -8.1875 11.0625 C-8.48046875 8.6796875 -8.48046875 8.6796875 -8.375 5.9375 C-8.34792969 5.02742188 -8.32085937 4.11734375 -8.29296875 3.1796875 C-8.25816406 2.48101562 -8.22335938 1.78234375 -8.1875 1.0625 C-5.17259443 0.05753148 -3.14568308 -0.04085303 0 0 Z " fill="#2075DD" transform="translate(97.1875,41.9375)"/>
<path d="M0 0 C2.97 0.495 2.97 0.495 6 1 C7.1875 3.6875 7.1875 3.6875 8 7 C6.55426407 10.27192867 4.64108905 12.61044324 2 15 C1.34 14.67 0.68 14.34 0 14 C0.7115625 13.38125 0.7115625 13.38125 1.4375 12.75 C3.24345568 10.72732964 3.76234011 9.69347874 4 7 C3.05219877 3.93787293 2.27795022 2.27795022 0 0 Z " fill="#1B78E3" transform="translate(102,43)"/>
<path d="M0 0 C0.66 0.33 1.32 0.66 2 1 C2.625 3.5625 2.625 3.5625 3 6 C2.01 6.33 1.02 6.66 0 7 C-0.66 6.67 -1.32 6.34 -2 6 C-2 9.3 -2 12.6 -2 16 C-4 14 -4 14 -4.375 10.25 C-4.29288504 5.75010023 -2.77033261 3.46291577 0 0 Z " fill="#1E7BE1" transform="translate(66,71)"/>
<path d="M0 0 C0 0.99 0 1.98 0 3 C-5.14368472 5.62432894 -8.19423062 6.56309176 -14 5 C-15.9375 3.4375 -15.9375 3.4375 -17 2 C-15.68 2 -14.36 2 -13 2 C-13 2.66 -13 3.32 -13 4 C-10.36 4 -7.72 4 -5 4 C-5 3.34 -5 2.68 -5 2 C-3.35 1.34 -1.7 0.68 0 0 Z " fill="#257CD8" transform="translate(82,87)"/>
<path d="M0 0 C3.37462715 0.54723683 5.08235 1.0549 8 3 C9.19625 3.165 10.3925 3.33 11.625 3.5 C13.295625 3.7475 13.295625 3.7475 15 4 C15.33 4.66 15.66 5.32 16 6 C9.58076669 5.70887831 5.37899794 4.54784971 0 1 C0 0.67 0 0.34 0 0 Z " fill="#227BD7" transform="translate(29,119)"/>
<path d="M0 0 C0.33 0 0.66 0 1 0 C1.02578125 0.71285156 1.0515625 1.42570312 1.078125 2.16015625 C1.46236689 8.64860449 2.52258111 12.55204374 6 18 C5.67 18.66 5.34 19.32 5 20 C1.91594738 17.05613159 0.06257758 15.07508285 -0.1953125 10.64453125 C-0.17210937 9.37996094 -0.14890625 8.11539063 -0.125 6.8125 C-0.10695312 5.54019531 -0.08890625 4.26789063 -0.0703125 2.95703125 C-0.04710937 1.98121094 -0.02390625 1.00539063 0 0 Z " fill="#2B7BD9" transform="translate(51,76)"/>
<path d="M0 0 C0 3 0 3 -1.75 5.125 C-3.95974524 6.96645436 -5.20090866 7.60012981 -8 8 C-8 7.34 -8 6.68 -8 6 C-7.34 6 -6.68 6 -6 6 C-6 5.01 -6 4.02 -6 3 C-3.9398797 0.3512739 -3.48011144 0 0 0 Z " fill="#187BE9" transform="translate(119,115)"/>
<path d="M0 0 C6.52307692 0.61538462 6.52307692 0.61538462 8.9375 2.5625 C9.288125 3.036875 9.63875 3.51125 10 4 C3.47692308 3.38461538 3.47692308 3.38461538 1.0625 1.4375 C0.711875 0.963125 0.36125 0.48875 0 0 Z " fill="#267BDF" transform="translate(105,26)"/>
</svg>
